<?xml version="1.0" standalone="no"?>
<!DOCTYPE svg PUBLIC "-//W3C//DTD SVG 20010904//EN"
 "http://www.w3.org/TR/2001/REC-SVG-20010904/DTD/svg10.dtd">
<svg version="1.0" xmlns="http://www.w3.org/2000/svg"
 width="1945.000000pt" height="1945.000000pt" viewBox="0 0 1945.000000 1945.000000"
 preserveAspectRatio="xMidYMid meet">
<metadata>
Created by potrace 1.14, written by Peter Selinger 2001-2017
</metadata>
<g transform="translate(0.000000,1945.000000) scale(0.100000,-0.100000)"
fill="#000000" stroke="none">
<path d="M4678 19445 c-2 -2 -52 -5 -113 -9 -284 -16 -504 -48 -830 -120 -37
-9 -170 -44 -260 -71 -506 -148 -1033 -410 -1485 -739 -50 -36 -229 -177 -256
-201 -7 -5 -43 -37 -80 -70 -134 -116 -438 -428 -529 -543 -11 -14 -32 -39
-46 -56 -69 -82 -241 -319 -299 -410 -143 -227 -320 -563 -406 -771 -20 -49
-43 -103 -50 -120 -7 -16 -40 -111 -73 -210 -66 -199 -116 -386 -155 -575 -24
-119 -29 -153 -41 -238 -3 -20 -7 -50 -10 -67 -2 -16 -7 -52 -10 -80 -3 -27
-8 -63 -10 -80 -2 -16 -7 -75 -12 -130 -10 -127 -11 -10349 0 -10470 4 -49 9
-101 11 -115 3 -14 7 -52 10 -85 4 -33 8 -71 10 -85 2 -14 7 -46 10 -71 9 -64
15 -100 22 -129 3 -14 8 -36 10 -50 30 -169 96 -424 158 -613 114 -344 297
-735 483 -1033 95 -151 299 -439 348 -490 5 -6 28 -33 50 -60 150 -183 384
-421 571 -580 90 -76 215 -177 254 -204 19 -13 41 -30 48 -37 17 -16 316 -214
362 -239 19 -10 37 -22 38 -26 2 -5 8 -8 12 -8 5 0 33 -14 62 -31 281 -167
818 -389 1097 -454 9 -3 43 -12 76 -21 33 -9 67 -17 75 -19 8 -2 45 -10 81
-19 73 -17 84 -19 209 -41 47 -8 94 -17 105 -19 29 -5 101 -14 170 -22 33 -3
68 -8 77 -9 9 -2 68 -7 130 -12 148 -10 10342 -11 10473 0 55 5 114 10 130 12
17 2 53 7 80 10 959 121 1840 509 2570 1133 136 117 423 404 537 537 168 197
391 510 499 700 18 33 42 74 51 90 49 83 214 426 263 548 93 232 199 573 240
777 2 8 6 26 9 40 3 14 8 37 10 53 3 15 7 35 10 45 2 9 7 39 11 66 3 27 8 52
9 55 2 3 7 31 10 62 4 31 8 65 10 75 2 11 7 50 11 87 3 37 8 77 10 87 17 87
20 888 20 5330 0 4457 -3 5203 -20 5335 -10 81 -19 152 -20 175 -3 26 -9 67
-25 160 -5 30 -12 71 -15 90 -3 19 -12 63 -20 98 -8 34 -17 74 -20 90 -2 15
-12 54 -21 87 -8 33 -17 67 -19 75 -17 81 -151 490 -166 504 -5 6 -9 16 -9 23
0 19 -85 214 -161 369 -526 1071 -1443 1924 -2549 2369 -223 90 -499 178 -689
220 -9 2 -56 13 -106 24 -49 11 -105 22 -122 25 -18 4 -48 9 -65 12 -18 3 -45
7 -61 10 -15 2 -39 6 -55 8 -66 10 -192 26 -252 31 -36 3 -85 8 -110 11 -42 5
-10257 13 -10262 9z m247 -5849 c109 -13 209 -43 315 -95 95 -47 192 -120 335
-252 28 -25 72 -66 100 -90 27 -24 55 -48 61 -54 6 -5 26 -23 45 -39 19 -16
79 -70 134 -119 55 -50 114 -102 130 -116 42 -36 199 -175 205 -181 4 -4 98
-89 206 -185 6 -5 26 -23 45 -39 19 -16 54 -48 79 -70 25 -23 79 -70 119 -106
41 -36 84 -74 95 -85 12 -11 55 -49 96 -85 41 -36 77 -67 80 -70 6 -6 76 -69
185 -166 295 -263 389 -346 450 -399 37 -33 73 -65 79 -70 6 -6 49 -44 96 -85
46 -41 94 -84 106 -95 11 -11 36 -33 55 -49 19 -17 77 -68 129 -114 52 -47
116 -104 141 -126 26 -23 78 -69 117 -104 38 -35 80 -72 93 -83 230 -199 376
-338 430 -408 174 -226 235 -513 174 -813 -11 -54 -58 -174 -92 -236 -80 -145
-120 -187 -493 -517 -129 -114 -255 -226 -280 -249 -25 -23 -144 -129 -265
-236 -121 -108 -321 -286 -445 -396 -124 -110 -331 -294 -460 -408 -129 -115
-253 -225 -275 -245 -39 -35 -168 -149 -250 -221 -21 -19 -64 -58 -95 -86 -30
-27 -134 -120 -230 -204 -96 -85 -193 -171 -215 -191 -252 -229 -534 -471
-592 -509 -110 -72 -251 -127 -383 -147 -60 -9 -222 -9 -285 0 -315 48 -588
249 -731 537 -78 158 -114 376 -91 540 14 92 20 117 48 197 58 170 146 299
285 423 22 19 77 69 124 110 46 41 91 82 100 90 9 8 50 44 90 80 41 36 84 74
96 85 12 11 50 45 84 75 35 30 68 60 74 65 6 6 52 46 101 89 50 44 95 85 100
90 6 6 44 40 85 76 41 35 82 71 90 80 8 8 51 46 95 85 72 63 129 113 174 155
9 8 50 44 91 80 41 35 82 71 91 80 21 20 66 60 169 150 47 41 92 82 101 90 8
8 49 44 89 80 41 36 81 72 90 80 9 8 49 44 90 80 41 36 77 68 80 71 3 3 48 43
100 89 52 47 97 87 100 90 3 3 37 33 75 66 168 147 159 135 123 166 -13 11
-36 31 -53 46 -16 15 -68 60 -115 102 -47 41 -90 79 -96 85 -23 22 -176 158
-319 284 -82 74 -166 147 -185 165 -19 17 -78 69 -130 115 -97 86 -241 214
-270 241 -9 8 -50 44 -91 80 -41 35 -76 67 -79 70 -3 3 -43 39 -90 80 -47 41
-103 91 -125 111 -39 36 -455 405 -589 523 -38 34 -76 68 -85 77 -9 8 -70 63
-136 121 -66 59 -136 126 -155 149 -287 348 -311 819 -61 1182 159 229 429
391 691 413 41 4 76 8 78 9 3 3 85 -3 147 -9z m9855 -5820 c174 -35 269 -72
390 -150 223 -146 387 -397 429 -661 10 -63 8 -269 -3 -320 -4 -16 -8 -39 -10
-50 -7 -37 -43 -139 -72 -200 -86 -184 -256 -356 -449 -453 -78 -39 -211 -79
-300 -91 -95 -12 -4668 -12 -4732 0 -179 35 -276 73 -407 159 -328 215 -494
629 -407 1015 92 405 442 718 841 752 36 3 66 6 67 7 7 5 4626 -3 4653 -8z"/>
</g>
</svg>
